<svg width="38" height="23" viewBox="0 0 38 23" fill="none" xmlns="http://www.w3.org/2000/svg">
<g clip-path="url(#clip0_1_1138)">
<path d="M0.470947 15.3659H3.66551L5.61728 5.8274H8.01299L8.36623 4.05287H6.0165L6.10554 3.65366C6.23847 2.90121 6.50475 2.05637 7.7024 2.05637C8.41305 2.05637 9.07813 2.10069 9.74321 2.41128L10.0985 0.548132C9.35732 0.286604 8.57743 0.151511 7.79144 0.148499C5.21806 0.148499 3.44396 1.65716 2.77804 4.05287H1.66901L1.31411 5.8274H2.42313L0.470947 15.3659Z" fill="#EA1D2C"/>
<path d="M10.5863 13.0593C14.3574 13.0593 16.9751 9.64272 16.9751 6.84779C16.9751 4.76267 15.0672 3.8752 13.204 3.8752C9.07685 3.8752 6.81533 7.55969 6.81533 10.0867C6.81533 12.1718 8.76751 13.0593 10.5863 13.0593ZM20.7026 13.0593C24.4736 13.0593 27.0913 9.64272 27.0913 6.84779C27.0913 4.76267 25.1391 3.8752 23.2756 3.8752C19.1496 3.8752 16.8873 7.5576 16.8873 10.0867C16.8873 12.1718 18.8838 13.0593 20.7026 13.0593ZM32.282 12.8816H35.4318L38.0043 0.32782H34.8102L34.0557 4.05453L32.7247 3.9216C29.6191 3.9216 26.7799 7.91418 26.7799 10.7538C26.7799 11.9072 27.5323 13.0609 28.8207 13.0609C30.6395 13.0609 31.9262 12.1735 32.4575 11.286H32.6348L32.282 12.8816ZM22.432 19.4923C19.9526 21.5466 16.7681 22.5497 13.5589 22.2872C9.34397 22.0209 6.32707 18.7821 5.79492 15.3659H5.97217C6.94826 17.4979 9.29966 19.4923 12.1836 19.8025C15.1098 20.1574 18.6167 18.8268 20.5241 17.0075L18.3947 15.3659H24.8277L23.4064 22.1986L22.4746 19.5366L22.432 19.4923Z" fill="#EA1D2C"/>
</g>
<defs>
<clipPath id="clip0_1_1138">
<rect width="37.7691" height="22.3046" fill="white" transform="translate(0.197998 0.148499)"/>
</clipPath>
</defs>
</svg>
